<svg width="100" height="100" viewBox="0 0 100 100" fill="none" xmlns="http://www.w3.org/2000/svg">
<path d="M66.463 50C66.463 53.3152 65.0632 56.4946 62.5715 58.8388C60.0798 61.183 56.7003 62.5 53.1765 62.5C49.6526 62.5 46.2732 61.183 43.7814 58.8388C41.2897 56.4946 39.8899 53.3152 39.8899 50C39.8899 46.6848 41.2897 43.5053 43.7814 41.1611C46.2732 38.8169 49.6526 37.5 53.1765 37.5C56.7003 37.5 60.0798 38.8169 62.5715 41.1611C65.0632 43.5053 66.463 46.6848 66.463 50Z" fill="#38BDF8"/>
<path d="M53.1781 91.25C69.6535 91.25 84.003 82.7 91.4966 70.05L100 73.6C94.4091 83.4244 85.4898 91.2101 74.6584 95.7209C63.827 100.232 51.7043 101.209 40.2152 98.4974C28.726 95.7859 18.5289 89.5412 11.243 80.7548C3.95711 71.9684 0 61.1439 0 50C0 38.8561 3.95711 28.0316 11.243 19.2452C18.5289 10.4588 28.726 4.21407 40.2152 1.50263C51.7043 -1.20882 63.827 -0.231588 74.6584 4.27915C85.4898 8.78989 94.4091 16.5756 100 26.4L91.4966 30C87.7487 23.6395 82.28 18.3243 75.6448 14.593C69.0097 10.8618 61.4439 8.84721 53.7145 8.75346C45.985 8.65971 38.3666 10.4901 31.6314 14.0592C24.8962 17.6283 19.2837 22.8091 15.3627 29.0766C11.4417 35.344 9.35163 42.4754 9.30435 49.7477C9.25707 57.02 11.2542 64.1749 15.0934 70.487C18.9326 76.7991 24.4774 82.0442 31.1657 85.6905C37.8539 89.3368 45.448 91.2548 53.1781 91.25Z" fill="white"/>
<path fill-rule="evenodd" clip-rule="evenodd" d="M53.1766 81.25C61.9862 81.25 70.4349 77.9576 76.6642 72.0971C82.8935 66.2366 86.3931 58.288 86.3931 50C86.3931 41.712 82.8935 33.7634 76.6642 27.9029C70.4349 22.0424 61.9862 18.75 53.1766 18.75C44.3671 18.75 35.9184 22.0424 29.6891 27.9029C23.4598 33.7634 19.9602 41.712 19.9602 50C19.9602 58.288 23.4598 66.2366 29.6891 72.0971C35.9184 77.9576 44.3671 81.25 53.1766 81.25ZM53.1766 72.5C56.3173 72.5 59.4272 71.918 62.3288 70.7873C65.2304 69.6565 67.8669 67.9992 70.0877 65.9099C72.3085 63.8206 74.0701 61.3402 75.272 58.6104C76.4739 55.8805 77.0925 52.9547 77.0925 50C77.0925 47.0452 76.4739 44.1194 75.272 41.3896C74.0701 38.6598 72.3085 36.1794 70.0877 34.0901C67.8669 32.0008 65.2304 30.3434 62.3288 29.2127C59.4272 28.082 56.3173 27.5 53.1766 27.5C46.8338 27.5 40.7507 29.8705 36.2656 34.0901C31.7805 38.3097 29.2608 44.0326 29.2608 50C29.2608 55.9674 31.7805 61.6903 36.2656 65.9099C40.7507 70.1294 46.8338 72.5 53.1766 72.5Z" fill="white"/>
<path d="M66.463 50C66.463 53.3152 65.0632 56.4946 62.5715 58.8388C60.0798 61.183 56.7003 62.5 53.1765 62.5C49.6526 62.5 46.2732 61.183 43.7814 58.8388C41.2897 56.4946 39.8899 53.3152 39.8899 50C39.8899 46.6848 41.2897 43.5053 43.7814 41.1611C46.2732 38.8169 49.6526 37.5 53.1765 37.5C56.7003 37.5 60.0798 38.8169 62.5715 41.1611C65.0632 43.5053 66.463 46.6848 66.463 50Z" fill="#38BDF8"/>
<path d="M53.1781 91.25C69.6535 91.25 84.003 82.7 91.4966 70.05L100 73.6C94.4091 83.4244 85.4898 91.2101 74.6584 95.7209C63.827 100.232 51.7043 101.209 40.2152 98.4974C28.726 95.7859 18.5289 89.5412 11.243 80.7548C3.95711 71.9684 0 61.1439 0 50C0 38.8561 3.95711 28.0316 11.243 19.2452C18.5289 10.4588 28.726 4.21407 40.2152 1.50263C51.7043 -1.20882 63.827 -0.231588 74.6584 4.27915C85.4898 8.78989 94.4091 16.5756 100 26.4L91.4966 30C87.7487 23.6395 82.28 18.3243 75.6448 14.593C69.0097 10.8618 61.4439 8.84721 53.7145 8.75346C45.985 8.65971 38.3666 10.4901 31.6314 14.0592C24.8962 17.6283 19.2837 22.8091 15.3627 29.0766C11.4417 35.344 9.35163 42.4754 9.30435 49.7477C9.25707 57.02 11.2542 64.1749 15.0934 70.487C18.9326 76.7991 24.4774 82.0442 31.1657 85.6905C37.8539 89.3368 45.448 91.2548 53.1781 91.25Z" fill="white"/>
<path fill-rule="evenodd" clip-rule="evenodd" d="M53.1766 81.25C61.9862 81.25 70.4349 77.9576 76.6642 72.0971C82.8935 66.2366 86.3931 58.288 86.3931 50C86.3931 41.712 82.8935 33.7634 76.6642 27.9029C70.4349 22.0424 61.9862 18.75 53.1766 18.75C44.3671 18.75 35.9184 22.0424 29.6891 27.9029C23.4598 33.7634 19.9602 41.712 19.9602 50C19.9602 58.288 23.4598 66.2366 29.6891 72.0971C35.9184 77.9576 44.3671 81.25 53.1766 81.25ZM53.1766 72.5C56.3173 72.5 59.4272 71.918 62.3288 70.7873C65.2304 69.6565 67.8669 67.9992 70.0877 65.9099C72.3085 63.8206 74.0701 61.3402 75.272 58.6104C76.4739 55.8805 77.0925 52.9547 77.0925 50C77.0925 47.0452 76.4739 44.1194 75.272 41.3896C74.0701 38.6598 72.3085 36.1794 70.0877 34.0901C67.8669 32.0008 65.2304 30.3434 62.3288 29.2127C59.4272 28.082 56.3173 27.5 53.1766 27.5C46.8338 27.5 40.7507 29.8705 36.2656 34.0901C31.7805 38.3097 29.2608 44.0326 29.2608 50C29.2608 55.9674 31.7805 61.6903 36.2656 65.9099C40.7507 70.1294 46.8338 72.5 53.1766 72.5Z" fill="white"/>
</svg>
